<?xml version="1.0" standalone="no"?>
<svg xmlns:xlink="http://www.w3.org/1999/xlink" id="wave" style="transform:rotate(0deg); transition: 0.3s" viewBox="0 0 1440 220" version="1.1" xmlns="http://www.w3.org/2000/svg"><defs><linearGradient id="sw-gradient-0" x1="0" x2="0" y1="1" y2="0"><stop stop-color="rgba(237, 175, 184, 1)" offset="0%"/><stop stop-color="rgba(237, 175, 184, 1)" offset="100%"/></linearGradient></defs><path style="transform:translate(0, 0px); opacity:1" fill="url(#sw-gradient-0)" d="M0,44L48,36.7C96,29,192,15,288,33C384,51,480,103,576,128.3C672,154,768,154,864,150.3C960,147,1056,139,1152,124.7C1248,110,1344,88,1440,99C1536,110,1632,154,1728,154C1824,154,1920,110,2016,77C2112,44,2208,22,2304,25.7C2400,29,2496,59,2592,80.7C2688,103,2784,117,2880,110C2976,103,3072,73,3168,77C3264,81,3360,117,3456,143C3552,169,3648,183,3744,176C3840,169,3936,139,4032,132C4128,125,4224,139,4320,121C4416,103,4512,51,4608,25.7C4704,0,4800,0,4896,22C4992,44,5088,88,5184,95.3C5280,103,5376,73,5472,84.3C5568,95,5664,147,5760,139.3C5856,132,5952,66,6048,36.7C6144,7,6240,15,6336,29.3C6432,44,6528,66,6624,77C6720,88,6816,88,6864,88L6912,88L6912,220L6864,220C6816,220,6720,220,6624,220C6528,220,6432,220,6336,220C6240,220,6144,220,6048,220C5952,220,5856,220,5760,220C5664,220,5568,220,5472,220C5376,220,5280,220,5184,220C5088,220,4992,220,4896,220C4800,220,4704,220,4608,220C4512,220,4416,220,4320,220C4224,220,4128,220,4032,220C3936,220,3840,220,3744,220C3648,220,3552,220,3456,220C3360,220,3264,220,3168,220C3072,220,2976,220,2880,220C2784,220,2688,220,2592,220C2496,220,2400,220,2304,220C2208,220,2112,220,2016,220C1920,220,1824,220,1728,220C1632,220,1536,220,1440,220C1344,220,1248,220,1152,220C1056,220,960,220,864,220C768,220,672,220,576,220C480,220,384,220,288,220C192,220,96,220,48,220L0,220Z"/></svg>